<?xml version="1.0" standalone="no"?>
<!DOCTYPE svg PUBLIC "-//W3C//DTD SVG 20010904//EN"
 "http://www.w3.org/TR/2001/REC-SVG-20010904/DTD/svg10.dtd">
<svg version="1.0" xmlns="http://www.w3.org/2000/svg"
 width="320.000000pt" height="320.000000pt" viewBox="0 0 320.000000 320.000000"
 preserveAspectRatio="xMidYMid meet">
<metadata>
Created by potrace 1.14, written by Peter Selinger 2001-2017
</metadata>
<g transform="translate(0.000000,320.000000) scale(0.100000,-0.100000)"
fill="#000000" stroke="none">
<path d="M1495 2669 c-78 -10 -163 -59 -213 -123 -37 -49 -32 -52 92 -53 144
-2 197 -23 232 -93 12 -25 20 -48 18 -52 -11 -18 26 -6 62 20 21 15 65 41 96
57 32 17 58 35 58 41 0 42 -86 137 -156 174 -52 26 -124 38 -189 29z"/>
<path d="M2455 2491 c-5 -9 20 -29 38 -29 55 -2 204 -72 273 -129 53 -43 66
-69 68 -138 2 -50 -25 -112 -84 -195 -11 -15 -20 -30 -20 -33 0 -3 -20 -38
-45 -78 l-45 -74 37 -36 c49 -46 83 -87 83 -99 0 -6 4 -10 8 -10 10 0 46 -80
61 -135 20 -71 22 -71 94 1 37 37 69 76 73 86 3 10 10 18 15 18 5 0 9 9 9 20
0 11 5 20 10 20 6 0 10 4 10 9 0 5 5 22 12 38 43 103 50 273 16 376 -35 107
-68 159 -155 243 -63 61 -163 116 -254 138 -72 18 -194 22 -204 7z"/>
<path d="M2169 2346 c-2 -2 -29 -6 -59 -7 -141 -7 -295 -71 -382 -160 -40 -41
-119 -169 -103 -169 2 0 0 -12 -6 -27 -15 -40 -14 -214 1 -244 8 -13 12 -25
11 -27 -4 -5 39 -86 57 -107 30 -35 105 -91 152 -113 25 -12 99 -40 165 -62
203 -70 220 -82 216 -155 -4 -65 -169 -74 -295 -16 -38 18 -94 50 -124 72 -39
28 -59 36 -67 29 -7 -6 -34 -47 -60 -93 -26 -45 -51 -84 -54 -87 -9 -8 -71
-110 -71 -119 0 -13 94 -76 161 -109 211 -102 467 -125 649 -57 25 9 54 19 65
22 68 22 163 115 208 205 65 130 70 301 13 422 -52 110 -152 176 -374 248
-156 50 -202 77 -202 117 0 20 9 36 28 51 24 20 36 22 112 18 85 -5 130 -20
230 -78 27 -16 37 -17 47 -7 10 10 69 104 166 266 l21 34 -25 19 c-49 41 -200
104 -268 113 -14 2 -39 6 -56 9 -53 9 -151 17 -156 12z"/>
<path d="M609 2293 c-4 -205 0 -1393 5 -1402 9 -14 452 -16 461 -1 3 5 6 118
6 250 1 175 4 240 12 240 7 1 83 1 169 1 140 -1 158 1 165 17 6 13 9 239 4
338 -1 20 -6 21 -158 21 -87 1 -166 2 -175 2 -15 1 -17 13 -17 91 l0 90 37 1
c20 0 105 1 187 2 l150 2 0 185 0 185 -422 3 -423 2 -1 -27z"/>
<path d="M385 1764 c-180 -94 -274 -241 -268 -421 3 -105 4 -111 42 -189 40
-83 124 -169 203 -207 30 -15 60 -27 66 -27 8 0 12 24 12 68 3 410 1 773 -5
781 -8 14 -14 13 -50 -5z"/>
<path d="M2590 820 c-42 -34 -168 -89 -244 -108 -41 -10 -121 -19 -182 -21
-60 -1 -111 -5 -113 -7 -10 -10 35 -44 92 -70 166 -74 367 -10 459 146 46 78
41 102 -12 60z"/>
</g>
</svg>
